<svg viewBox="0 0 18 14" fill="none" xmlns="http://www.w3.org/2000/svg">
<path d="M17.659 4.5257C17.7961 4.41505 18 4.51856 18 4.69345V11.9924C18 12.9382 17.2441 13.7056 16.3125 13.7056H1.6875C0.755859 13.7056 0 12.9382 0 11.9924V4.69702C0 4.51856 0.200391 4.41862 0.341016 4.52927C1.12852 5.1503 2.17266 5.93909 5.75859 8.58384C6.50039 9.13349 7.75195 10.2899 9 10.2828C10.2551 10.2935 11.5312 9.11207 12.2449 8.58384C15.8309 5.93909 16.8715 5.14673 17.659 4.5257ZM9 9.13706C9.81563 9.15133 10.9898 8.09486 11.5805 7.65942C16.2457 4.22232 16.6008 3.92251 17.6766 3.06591C17.8805 2.9053 18 2.65546 18 2.39134V1.7132C18 0.76737 17.2441 0 16.3125 0H1.6875C0.755859 0 0 0.76737 0 1.7132V2.39134C0 2.65546 0.119531 2.90173 0.323438 3.06591C1.39922 3.91894 1.7543 4.22232 6.41953 7.65942C7.01016 8.09486 8.18438 9.15133 9 9.13706Z" fill="#420308" fill-opacity="0.6"/>
</svg>
