<svg viewBox="0 0 26 25" fill="none" xmlns="http://www.w3.org/2000/svg">
<g clip-path="url(#clip0_166_684)">
<path d="M24.7661 17.6661L19.2973 15.3223C19.0637 15.2227 18.804 15.2018 18.5575 15.2625C18.3109 15.3233 18.0907 15.4625 17.9301 15.6592L15.5082 18.6182C11.7073 16.8261 8.64848 13.7673 6.85638 9.96635L9.81537 7.54448C10.0125 7.38417 10.152 7.164 10.2128 6.91731C10.2736 6.67062 10.2523 6.41083 10.1523 6.17729L7.80853 0.708542C7.69873 0.456788 7.50451 0.25124 7.25939 0.12734C7.01426 0.00344002 6.73359 -0.0310452 6.46576 0.0298307L1.38763 1.20171C1.12942 1.26133 0.899033 1.40672 0.734087 1.61415C0.569141 1.82157 0.479372 2.07878 0.479431 2.3438C0.479431 14.8682 10.6308 25 23.1357 25C23.4008 25.0002 23.6581 24.9105 23.8656 24.7455C24.0731 24.5806 24.2186 24.3501 24.2783 24.0918L25.4501 19.0137C25.5106 18.7446 25.4754 18.4628 25.3505 18.2168C25.2257 17.9708 25.019 17.7761 24.7661 17.6661Z" fill="#420308"/>
</g>
<defs>
<clipPath id="clip0_166_684">
<rect width="25" height="25" fill="white" transform="translate(0.479431)"/>
</clipPath>
</defs>
</svg>
